# xmcd
#
# Track frame offsets:
#	150
#	10525
#	22945
#	35360
#	49275
#	63225
#	76325
#	89665
#	100310
#	111865
#	126870
#	138095
#	151750
#	163255
#	176285
#	189975
#	204700
#	213545
#	228155
#	240810
#	253725
#	269630
#	284950
#	298305
#
# Disc length: 4252 seconds
#
# Revision: 1
# Processed by: cddbd v1.5.1PL0 Copyright (c) Steve Scherf et al.
# Submitted via: audiograbber 1.83.01
#
DISCID=55109a18
DTITLE=The Statler Brothers - The Very Best Of tThe Statler Brothers
DYEAR=1900
DGENRE=Country
TTITLE0=Flowers On The Wall
TTITLE1=Class Of '57'
TTITLE2=Monday Morning Secretary
TTITLE3=You Can't Go Home
TTITLE4=The Movies
TTITLE5=Do You Remember These
TTITLE6=I'll Go To My Grave
TTITLE7=Thank God I Got You
TTITLE8=All American Girl
TTITLE9=Carry Me Back
TTITLE10=Bed Of Roses
TTITLE11=Pictures
TTITLE12=Your Picture In The Paper
TTITLE13=New Yourk City
TTITLE14=How Great Thou Art
TTITLE15=Susan When She Cried
TTITLE16=What Ever Happened To Randolph Scott
TTITLE17=Thank You World
TTITLE18=Woman Without A Home
TTITLE19=I Was There
TTITLE20=A Stranger In My Place
TTITLE21=No One Will Ever Know
TTITLE22=The Best I Know How
TTITLE23=Maple Street Memories
EXTD=
EXTT0=
EXTT1=
EXTT2=
EXTT3=
EXTT4=
EXTT5=
EXTT6=
EXTT7=
EXTT8=
EXTT9=
EXTT10=
EXTT11=
EXTT12=
EXTT13=
EXTT14=
EXTT15=
EXTT16=
EXTT17=
EXTT18=
EXTT19=
EXTT20=
EXTT21=
EXTT22=
EXTT23=
PLAYORDER=
